<svg width="172" height="130" viewBox="0 0 172 130" fill="none" xmlns="http://www.w3.org/2000/svg">
<rect x="0.75" y="0.75" width="170.5" height="128.5" rx="3.25" fill="white"/>
<rect x="0.75" y="0.75" width="170.5" height="128.5" rx="3.25" stroke="#9EA9B2" stroke-width="1.5"/>
<g clip-path="url(#clip0_7454_277417)">
<mask id="path-3-inside-1_7454_277417" fill="white">
<path d="M27 15H145V29H27V15Z"/>
</mask>
<rect x="27" y="15" width="8" height="8" rx="2" fill="#718491"/>
<rect x="37.5" y="17" width="46" height="4" rx="2" fill="#718491"/>
<path d="M88.6514 20.5312V21H86.2686V20.5972L87.4258 19.335C87.5527 19.1917 87.6528 19.068 87.7261 18.9639C87.7993 18.8597 87.8506 18.7661 87.8799 18.6831C87.9108 18.5985 87.9263 18.5163 87.9263 18.4365C87.9263 18.3242 87.9051 18.2257 87.8628 18.1411C87.8221 18.0548 87.7619 17.9873 87.6821 17.9385C87.6024 17.888 87.5055 17.8628 87.3916 17.8628C87.2598 17.8628 87.1491 17.8913 87.0596 17.9482C86.9701 18.0052 86.9025 18.0841 86.8569 18.1851C86.8114 18.2843 86.7886 18.3983 86.7886 18.5269H86.2002C86.2002 18.3201 86.2474 18.1313 86.3418 17.9604C86.4362 17.7879 86.5729 17.6512 86.752 17.5503C86.931 17.4478 87.1466 17.3965 87.3989 17.3965C87.6366 17.3965 87.8384 17.4364 88.0044 17.5161C88.1704 17.5959 88.2965 17.709 88.3828 17.8555C88.4707 18.002 88.5146 18.1753 88.5146 18.3755C88.5146 18.4862 88.4967 18.596 88.4609 18.7051C88.4251 18.8141 88.3739 18.9232 88.3071 19.0322C88.242 19.1396 88.1647 19.2479 88.0752 19.3569C87.9857 19.4644 87.8872 19.5734 87.7798 19.6841L87.0107 20.5312H88.6514ZM89.728 19.3472L89.2593 19.2324L89.4521 17.4453H91.3687V17.9434H89.9404L89.8428 18.8149C89.8981 18.7824 89.9746 18.7507 90.0723 18.7197C90.1699 18.6872 90.2814 18.6709 90.4067 18.6709C90.5744 18.6709 90.7241 18.6986 90.856 18.7539C90.9894 18.8076 91.1025 18.8866 91.1953 18.9907C91.2881 19.0933 91.3589 19.2186 91.4077 19.3667C91.4565 19.5132 91.481 19.6784 91.481 19.8623C91.481 20.0267 91.4565 20.1805 91.4077 20.3237C91.3605 20.467 91.2889 20.5931 91.1929 20.7021C91.0968 20.8112 90.9756 20.8966 90.8291 20.9585C90.6842 21.0187 90.5125 21.0488 90.314 21.0488C90.1659 21.0488 90.0234 21.0277 89.8867 20.9854C89.7516 20.9414 89.6304 20.8771 89.5229 20.7925C89.4155 20.7062 89.3293 20.6004 89.2642 20.4751C89.1991 20.3481 89.1616 20.2025 89.1519 20.0381H89.728C89.7427 20.1536 89.7744 20.2521 89.8232 20.3335C89.8737 20.4132 89.9404 20.4743 90.0234 20.5166C90.1064 20.5589 90.2025 20.5801 90.3115 20.5801C90.4108 20.5801 90.4963 20.563 90.5679 20.5288C90.6395 20.493 90.6989 20.4425 90.7461 20.3774C90.7949 20.3107 90.8307 20.2326 90.8535 20.1431C90.8779 20.0535 90.8901 19.9543 90.8901 19.8452C90.8901 19.741 90.8763 19.6458 90.8486 19.5596C90.8226 19.4733 90.7827 19.3984 90.729 19.335C90.6769 19.2715 90.611 19.2227 90.5313 19.1885C90.4515 19.1527 90.3595 19.1348 90.2554 19.1348C90.1154 19.1348 90.008 19.1551 89.9331 19.1958C89.8599 19.2365 89.7915 19.2869 89.728 19.3472Z" fill="#718491"/>
<path d="M139.625 18.3125L141.5 20.1875L143.375 18.3125" stroke="#718491" stroke-width="0.625" stroke-miterlimit="10" stroke-linecap="round" stroke-linejoin="round"/>
</g>
<path d="M145 29V28.6875H27V29V29.3125H145V29Z" fill="#CCCCCC" mask="url(#path-3-inside-1_7454_277417)"/>
<mask id="path-9-inside-2_7454_277417" fill="white">
<path d="M27 29H145V81.5625H27V29Z"/>
</mask>
<path d="M145 81.5625V81.25H27V81.5625V81.875H145V81.5625Z" fill="#CCCCCC" mask="url(#path-9-inside-2_7454_277417)"/>
<g clip-path="url(#clip1_7454_277417)">
<rect x="27" y="35" width="8" height="8" rx="2" fill="#718491"/>
<rect x="37.5" y="37" width="43" height="4" rx="2" fill="#718491"/>
<path d="M85.7173 39.7329V40.2017H83.1538L83.1343 39.8477L84.6675 37.4453H85.1387L84.6284 38.3193L83.7471 39.7329H85.7173ZM85.2729 37.4453V41H84.6846V37.4453H85.2729ZM88.4272 38.9248V39.5059C88.4272 39.7842 88.3996 40.0218 88.3442 40.2187C88.2905 40.4141 88.2124 40.5728 88.1099 40.6948C88.0073 40.8169 87.8844 40.9064 87.7412 40.9634C87.5996 41.0203 87.4409 41.0488 87.2651 41.0488C87.1252 41.0488 86.995 41.0309 86.8745 40.9951C86.7557 40.9593 86.6483 40.9032 86.5522 40.8267C86.4562 40.7502 86.374 40.6517 86.3057 40.5312C86.2389 40.4092 86.1868 40.2635 86.1494 40.0942C86.1136 39.925 86.0957 39.7288 86.0957 39.5059V38.9248C86.0957 38.6449 86.1234 38.4089 86.1787 38.2168C86.234 38.0231 86.313 37.866 86.4155 37.7456C86.5181 37.6235 86.6401 37.5348 86.7817 37.4795C86.925 37.4242 87.0845 37.3965 87.2603 37.3965C87.4019 37.3965 87.5321 37.4144 87.6509 37.4502C87.7713 37.4844 87.8787 37.5389 87.9731 37.6138C88.0692 37.6886 88.1506 37.7863 88.2173 37.9067C88.2856 38.0256 88.3377 38.1696 88.3735 38.3389C88.4093 38.5065 88.4272 38.7018 88.4272 38.9248ZM87.8389 39.5889V38.8369C87.8389 38.6953 87.8307 38.5708 87.8145 38.4634C87.7982 38.3543 87.7738 38.2624 87.7412 38.1875C87.7103 38.111 87.6712 38.0492 87.624 38.002C87.5768 37.9531 87.5231 37.9181 87.4629 37.897C87.4027 37.8742 87.3351 37.8628 87.2603 37.8628C87.1691 37.8628 87.0877 37.8807 87.0161 37.9165C86.9445 37.9507 86.8843 38.006 86.8354 38.0825C86.7866 38.159 86.7492 38.2599 86.7231 38.3853C86.6987 38.509 86.6865 38.6595 86.6865 38.8369V39.5889C86.6865 39.7321 86.6947 39.8582 86.7109 39.9673C86.7272 40.0763 86.7516 40.1699 86.7842 40.248C86.8167 40.3245 86.8558 40.388 86.9014 40.4385C86.9486 40.4873 87.0023 40.5231 87.0625 40.5459C87.1243 40.5687 87.1919 40.5801 87.2651 40.5801C87.3579 40.5801 87.4401 40.5622 87.5117 40.5264C87.5833 40.4906 87.6436 40.4336 87.6924 40.3555C87.7412 40.2757 87.7778 40.1724 87.8022 40.0454C87.8267 39.9185 87.8389 39.7663 87.8389 39.5889Z" fill="#718491"/>
<path d="M143.375 40.1875L141.5 38.3125L139.625 40.1875" stroke="#718491" stroke-width="0.625" stroke-miterlimit="10" stroke-linecap="round" stroke-linejoin="round"/>
</g>
<rect x="43.25" y="52" width="49" height="4" rx="2" fill="#718491"/>
<path d="M96.625 52.4331V56H96.0366V53.1313L95.165 53.4268V52.9409L96.5542 52.4331H96.625ZM100.177 53.9248V54.5059C100.177 54.7842 100.15 55.0218 100.094 55.2187C100.041 55.4141 99.9624 55.5728 99.8599 55.6948C99.7573 55.8169 99.6344 55.9064 99.4912 55.9634C99.3496 56.0203 99.1909 56.0488 99.0151 56.0488C98.8752 56.0488 98.745 56.0309 98.6245 55.9951C98.5057 55.9593 98.3983 55.9032 98.3022 55.8267C98.2062 55.7502 98.124 55.6517 98.0557 55.5312C97.9889 55.4092 97.9368 55.2635 97.8994 55.0942C97.8636 54.925 97.8457 54.7288 97.8457 54.5059V53.9248C97.8457 53.6449 97.8734 53.4089 97.9287 53.2168C97.984 53.0231 98.063 52.866 98.1655 52.7456C98.2681 52.6235 98.3901 52.5348 98.5317 52.4795C98.675 52.4242 98.8345 52.3965 99.0103 52.3965C99.1519 52.3965 99.2821 52.4144 99.4009 52.4502C99.5213 52.4844 99.6287 52.5389 99.7231 52.6138C99.8192 52.6886 99.9006 52.7863 99.9673 52.9067C100.036 53.0256 100.088 53.1696 100.124 53.3389C100.159 53.5065 100.177 53.7018 100.177 53.9248ZM99.5889 54.5889V53.8369C99.5889 53.6953 99.5807 53.5708 99.5645 53.4634C99.5482 53.3543 99.5238 53.2624 99.4912 53.1875C99.4603 53.111 99.4212 53.0492 99.374 53.002C99.3268 52.9531 99.2731 52.9181 99.2129 52.897C99.1527 52.8742 99.0851 52.8628 99.0103 52.8628C98.9191 52.8628 98.8377 52.8807 98.7661 52.9165C98.6945 52.9507 98.6343 53.006 98.5854 53.0825C98.5366 53.159 98.4992 53.2599 98.4731 53.3853C98.4487 53.509 98.4365 53.6595 98.4365 53.8369V54.5889C98.4365 54.7321 98.4447 54.8582 98.4609 54.9673C98.4772 55.0763 98.5016 55.1699 98.5342 55.248C98.5667 55.3245 98.6058 55.388 98.6514 55.4385C98.6986 55.4873 98.7523 55.5231 98.8125 55.5459C98.8743 55.5687 98.9419 55.5801 99.0151 55.5801C99.1079 55.5801 99.1901 55.5622 99.2617 55.5264C99.3333 55.4906 99.3936 55.4336 99.4424 55.3555C99.4912 55.2757 99.5278 55.1724 99.5522 55.0454C99.5767 54.9185 99.5889 54.7663 99.5889 54.5889Z" fill="#718491"/>
<rect x="43.25" y="63" width="95.5" height="0.3125" fill="#CCCCCC"/>
<rect x="43.25" y="70.3125" width="44" height="4" rx="2" fill="#718491"/>
<path d="M92.4014 73.8437V74.3125H90.0186V73.9097L91.1758 72.6475C91.3027 72.5042 91.4028 72.3805 91.4761 72.2764C91.5493 72.1722 91.6006 72.0786 91.6299 71.9956C91.6608 71.911 91.6763 71.8288 91.6763 71.749C91.6763 71.6367 91.6551 71.5382 91.6128 71.4536C91.5721 71.3673 91.5119 71.2998 91.4321 71.251C91.3524 71.2005 91.2555 71.1753 91.1416 71.1753C91.0098 71.1753 90.8991 71.2038 90.8096 71.2607C90.7201 71.3177 90.6525 71.3966 90.6069 71.4976C90.5614 71.5968 90.5386 71.7108 90.5386 71.8394H89.9502C89.9502 71.6326 89.9974 71.4438 90.0918 71.2729C90.1862 71.1004 90.3229 70.9637 90.502 70.8628C90.681 70.7603 90.8966 70.709 91.1489 70.709C91.3866 70.709 91.5884 70.7489 91.7544 70.8286C91.9204 70.9084 92.0465 71.0215 92.1328 71.168C92.2207 71.3145 92.2646 71.4878 92.2646 71.688C92.2646 71.7987 92.2467 71.9085 92.2109 72.0176C92.1751 72.1266 92.1239 72.2357 92.0571 72.3447C91.992 72.4521 91.9147 72.5604 91.8252 72.6694C91.7357 72.7769 91.6372 72.8859 91.5298 72.9966L90.7607 73.8437H92.4014ZM95.1772 72.2373V72.8184C95.1772 73.0967 95.1496 73.3343 95.0942 73.5312C95.0405 73.7266 94.9624 73.8853 94.8599 74.0073C94.7573 74.1294 94.6344 74.2189 94.4912 74.2759C94.3496 74.3328 94.1909 74.3613 94.0151 74.3613C93.8752 74.3613 93.745 74.3434 93.6245 74.3076C93.5057 74.2718 93.3983 74.2157 93.3022 74.1392C93.2062 74.0627 93.124 73.9642 93.0557 73.8437C92.9889 73.7217 92.9368 73.576 92.8994 73.4067C92.8636 73.2375 92.8457 73.0413 92.8457 72.8184V72.2373C92.8457 71.9574 92.8734 71.7214 92.9287 71.5293C92.984 71.3356 93.063 71.1785 93.1655 71.0581C93.2681 70.936 93.3901 70.8473 93.5317 70.792C93.675 70.7367 93.8345 70.709 94.0103 70.709C94.1519 70.709 94.2821 70.7269 94.4009 70.7627C94.5213 70.7969 94.6287 70.8514 94.7231 70.9263C94.8192 71.0011 94.9006 71.0988 94.9673 71.2192C95.0356 71.3381 95.0877 71.4821 95.1235 71.6514C95.1593 71.819 95.1772 72.0143 95.1772 72.2373ZM94.5889 72.9014V72.1494C94.5889 72.0078 94.5807 71.8833 94.5645 71.7759C94.5482 71.6668 94.5238 71.5749 94.4912 71.5C94.4603 71.4235 94.4212 71.3617 94.374 71.3145C94.3268 71.2656 94.2731 71.2306 94.2129 71.2095C94.1527 71.1867 94.0851 71.1753 94.0103 71.1753C93.9191 71.1753 93.8377 71.1932 93.7661 71.229C93.6945 71.2632 93.6343 71.3185 93.5854 71.395C93.5366 71.4715 93.4992 71.5724 93.4731 71.6978C93.4487 71.8215 93.4365 71.972 93.4365 72.1494V72.9014C93.4365 73.0446 93.4447 73.1707 93.4609 73.2798C93.4772 73.3888 93.5016 73.4824 93.5342 73.5605C93.5667 73.637 93.6058 73.7005 93.6514 73.751C93.6986 73.7998 93.7523 73.8356 93.8125 73.8584C93.8743 73.8812 93.9419 73.8926 94.0151 73.8926C94.1079 73.8926 94.1901 73.8747 94.2617 73.8389C94.3333 73.8031 94.3936 73.7461 94.4424 73.668C94.4912 73.5882 94.5278 73.4849 94.5522 73.3579C94.5767 73.231 94.5889 73.0788 94.5889 72.9014Z" fill="#718491"/>
<mask id="path-20-inside-3_7454_277417" fill="white">
<path d="M27 81.5625H145V101.562H27V81.5625Z"/>
</mask>
<path d="M145 101.562V101.25H27V101.562V101.875H145V101.562Z" fill="#CCCCCC" mask="url(#path-20-inside-3_7454_277417)"/>
<rect x="27" y="87.5625" width="8" height="8" rx="2" fill="#718491"/>
<rect x="37.5" y="89.5625" width="49" height="4" rx="2" fill="#718491"/>
<path d="M91.6514 93.0937V93.5625H89.2686V93.1597L90.4258 91.8975C90.5527 91.7542 90.6528 91.6305 90.7261 91.5264C90.7993 91.4222 90.8506 91.3286 90.8799 91.2456C90.9108 91.161 90.9263 91.0788 90.9263 90.999C90.9263 90.8867 90.9051 90.7882 90.8628 90.7036C90.8221 90.6173 90.7619 90.5498 90.6821 90.501C90.6024 90.4505 90.5055 90.4253 90.3916 90.4253C90.2598 90.4253 90.1491 90.4538 90.0596 90.5107C89.9701 90.5677 89.9025 90.6466 89.8569 90.7476C89.8114 90.8468 89.7886 90.9608 89.7886 91.0894H89.2002C89.2002 90.8826 89.2474 90.6938 89.3418 90.5229C89.4362 90.3504 89.5729 90.2137 89.752 90.1128C89.931 90.0103 90.1466 89.959 90.3989 89.959C90.6366 89.959 90.8384 89.9989 91.0044 90.0786C91.1704 90.1584 91.2965 90.2715 91.3828 90.418C91.4707 90.5645 91.5146 90.7378 91.5146 90.938C91.5146 91.0487 91.4967 91.1585 91.4609 91.2676C91.4251 91.3766 91.3739 91.4857 91.3071 91.5947C91.242 91.7021 91.1647 91.8104 91.0752 91.9194C90.9857 92.0269 90.8872 92.1359 90.7798 92.2466L90.0107 93.0937H91.6514ZM94.4272 91.4873V92.0684C94.4272 92.3467 94.3996 92.5843 94.3442 92.7812C94.2905 92.9766 94.2124 93.1353 94.1099 93.2573C94.0073 93.3794 93.8844 93.4689 93.7412 93.5259C93.5996 93.5828 93.4409 93.6113 93.2651 93.6113C93.1252 93.6113 92.995 93.5934 92.8745 93.5576C92.7557 93.5218 92.6483 93.4657 92.5522 93.3892C92.4562 93.3127 92.374 93.2142 92.3057 93.0937C92.2389 92.9717 92.1868 92.826 92.1494 92.6567C92.1136 92.4875 92.0957 92.2913 92.0957 92.0684V91.4873C92.0957 91.2074 92.1234 90.9714 92.1787 90.7793C92.234 90.5856 92.313 90.4285 92.4155 90.3081C92.5181 90.186 92.6401 90.0973 92.7817 90.042C92.925 89.9867 93.0845 89.959 93.2603 89.959C93.4019 89.959 93.5321 89.9769 93.6509 90.0127C93.7713 90.0469 93.8787 90.1014 93.9731 90.1763C94.0692 90.2511 94.1506 90.3488 94.2173 90.4692C94.2856 90.5881 94.3377 90.7321 94.3735 90.9014C94.4093 91.069 94.4272 91.2643 94.4272 91.4873ZM93.8389 92.1514V91.3994C93.8389 91.2578 93.8307 91.1333 93.8145 91.0259C93.7982 90.9168 93.7738 90.8249 93.7412 90.75C93.7103 90.6735 93.6712 90.6117 93.624 90.5645C93.5768 90.5156 93.5231 90.4806 93.4629 90.4595C93.4027 90.4367 93.3351 90.4253 93.2603 90.4253C93.1691 90.4253 93.0877 90.4432 93.0161 90.479C92.9445 90.5132 92.8843 90.5685 92.8354 90.645C92.7866 90.7215 92.7492 90.8224 92.7231 90.9478C92.6987 91.0715 92.6865 91.222 92.6865 91.3994V92.1514C92.6865 92.2946 92.6947 92.4207 92.7109 92.5298C92.7272 92.6388 92.7516 92.7324 92.7842 92.8105C92.8167 92.887 92.8558 92.9505 92.9014 93.001C92.9486 93.0498 93.0023 93.0856 93.0625 93.1084C93.1243 93.1312 93.1919 93.1426 93.2651 93.1426C93.3579 93.1426 93.4401 93.1247 93.5117 93.0889C93.5833 93.0531 93.6436 92.9961 93.6924 92.918C93.7412 92.8382 93.7778 92.7349 93.8022 92.6079C93.8267 92.481 93.8389 92.3288 93.8389 92.1514Z" fill="#718491"/>
<g clip-path="url(#clip2_7454_277417)">
<rect x="27" y="107.562" width="8" height="8" rx="2" fill="#718491"/>
<rect x="37.5" y="109.562" width="42" height="4" rx="2" fill="#718491"/>
<path d="M84.6514 113.094V113.562H82.2686V113.16L83.4258 111.897C83.5527 111.754 83.6528 111.631 83.7261 111.526C83.7993 111.422 83.8506 111.329 83.8799 111.246C83.9108 111.161 83.9263 111.079 83.9263 110.999C83.9263 110.887 83.9051 110.788 83.8628 110.704C83.8221 110.617 83.7619 110.55 83.6821 110.501C83.6024 110.451 83.5055 110.425 83.3916 110.425C83.2598 110.425 83.1491 110.454 83.0596 110.511C82.9701 110.568 82.9025 110.647 82.8569 110.748C82.8114 110.847 82.7886 110.961 82.7886 111.089H82.2002C82.2002 110.883 82.2474 110.694 82.3418 110.523C82.4362 110.35 82.5729 110.214 82.752 110.113C82.931 110.01 83.1466 109.959 83.3989 109.959C83.6366 109.959 83.8384 109.999 84.0044 110.079C84.1704 110.158 84.2965 110.271 84.3828 110.418C84.4707 110.564 84.5146 110.738 84.5146 110.938C84.5146 111.049 84.4967 111.159 84.4609 111.268C84.4251 111.377 84.3739 111.486 84.3071 111.595C84.242 111.702 84.1647 111.81 84.0752 111.919C83.9857 112.027 83.8872 112.136 83.7798 112.247L83.0107 113.094H84.6514ZM87.4272 111.487V112.068C87.4272 112.347 87.3996 112.584 87.3442 112.781C87.2905 112.977 87.2124 113.135 87.1099 113.257C87.0073 113.379 86.8844 113.469 86.7412 113.526C86.5996 113.583 86.4409 113.611 86.2651 113.611C86.1252 113.611 85.995 113.593 85.8745 113.558C85.7557 113.522 85.6483 113.466 85.5522 113.389C85.4562 113.313 85.374 113.214 85.3057 113.094C85.2389 112.972 85.1868 112.826 85.1494 112.657C85.1136 112.487 85.0957 112.291 85.0957 112.068V111.487C85.0957 111.207 85.1234 110.971 85.1787 110.779C85.234 110.586 85.313 110.429 85.4155 110.308C85.5181 110.186 85.6401 110.097 85.7817 110.042C85.925 109.987 86.0845 109.959 86.2603 109.959C86.4019 109.959 86.5321 109.977 86.6509 110.013C86.7713 110.047 86.8787 110.101 86.9731 110.176C87.0692 110.251 87.1506 110.349 87.2173 110.469C87.2856 110.588 87.3377 110.732 87.3735 110.901C87.4093 111.069 87.4272 111.264 87.4272 111.487ZM86.8389 112.151V111.399C86.8389 111.258 86.8307 111.133 86.8145 111.026C86.7982 110.917 86.7738 110.825 86.7412 110.75C86.7103 110.674 86.6712 110.612 86.624 110.564C86.5768 110.516 86.5231 110.481 86.4629 110.459C86.4027 110.437 86.3351 110.425 86.2603 110.425C86.1691 110.425 86.0877 110.443 86.0161 110.479C85.9445 110.513 85.8843 110.569 85.8354 110.645C85.7866 110.722 85.7492 110.822 85.7231 110.948C85.6987 111.071 85.6865 111.222 85.6865 111.399V112.151C85.6865 112.295 85.6947 112.421 85.7109 112.53C85.7272 112.639 85.7516 112.732 85.7842 112.811C85.8167 112.887 85.8558 112.951 85.9014 113.001C85.9486 113.05 86.0023 113.086 86.0625 113.108C86.1243 113.131 86.1919 113.143 86.2651 113.143C86.3579 113.143 86.4401 113.125 86.5117 113.089C86.5833 113.053 86.6436 112.996 86.6924 112.918C86.7412 112.838 86.7778 112.735 86.8022 112.608C86.8267 112.481 86.8389 112.329 86.8389 112.151Z" fill="#718491"/>
<path d="M139.625 110.875L141.5 112.75L143.375 110.875" stroke="#718491" stroke-width="0.625" stroke-miterlimit="10" stroke-linecap="round" stroke-linejoin="round"/>
</g>
<defs>
<clipPath id="clip0_7454_277417">
<path d="M27 15H145V29H27V15Z" fill="white"/>
</clipPath>
<clipPath id="clip1_7454_277417">
<rect width="118" height="20" fill="white" transform="translate(27 29)"/>
</clipPath>
<clipPath id="clip2_7454_277417">
<rect width="118" height="14" fill="white" transform="translate(27 101.562)"/>
</clipPath>
</defs>
</svg>
