<svg width="16" height="16" viewBox="0 0 16 16" fill="none" xmlns="http://www.w3.org/2000/svg">
<g clip-path="url(#clip0_11373_2251)">
<path d="M0.500001 4.01514C0.223858 4.01514 0 4.23899 0 4.51514V11.5456C0 11.8217 0.223858 12.0456 0.5 12.0456H15.5C15.7762 12.0456 16 11.8217 16 11.5456V4.51514C16 4.23899 15.7762 4.01514 15.5 4.01514H0.500001ZM15.0267 10.5114C15.0267 10.7875 14.8028 11.0114 14.5267 11.0114H1.53422C1.25808 11.0114 1.03422 10.7875 1.03422 10.5114V7.49613C1.03422 7.21999 1.25808 6.99613 1.53422 6.99613H14.5267C14.8028 6.99613 15.0267 7.21999 15.0267 7.49613V10.5114Z" fill="#FF5B2E"/>
<path d="M0 0.5C0 0.223858 0.223858 0 0.5 0H15.5C15.7762 0 16 0.223858 16 0.5V2.481C16 2.75714 15.7762 2.981 15.5 2.981H0.500001C0.223858 2.981 0 2.75714 0 2.481V0.5Z" fill="#FF5B2E"/>
<path d="M0 13.519C0 13.2429 0.223858 13.019 0.5 13.019H15.5C15.7762 13.019 16 13.2429 16 13.519V15.5C16 15.7762 15.7762 16 15.5 16H0.500001C0.223858 16 0 15.7762 0 15.5V13.519Z" fill="#FF5B2E"/>
</g>
<defs>
<clipPath id="clip0_11373_2251">
<rect width="16" height="16" fill="white"/>
</clipPath>
</defs>
</svg>
