<svg width="172" height="130" viewBox="0 0 172 130" fill="none" xmlns="http://www.w3.org/2000/svg">
<rect x="0.75" y="0.75" width="170.5" height="128.5" rx="3.25" fill="white"/>
<rect x="0.75" y="0.75" width="170.5" height="128.5" rx="3.25" stroke="#9EA9B2" stroke-width="1.5"/>
<path d="M27 15C27 13.8954 27.8954 13 29 13H143C144.105 13 145 13.8954 145 15V29C145 30.1046 144.105 31 143 31H29C27.8954 31 27 30.1046 27 29V15Z" fill="#F0F0F0"/>
<rect x="33.25" y="18" width="8" height="8" rx="2" fill="#718491"/>
<rect x="43.75" y="20" width="46" height="4" rx="2" fill="#718491"/>
<path d="M94.9014 23.5312V24H92.5186V23.5972L93.6758 22.335C93.8027 22.1917 93.9028 22.068 93.9761 21.9639C94.0493 21.8597 94.1006 21.7661 94.1299 21.6831C94.1608 21.5985 94.1763 21.5163 94.1763 21.4365C94.1763 21.3242 94.1551 21.2257 94.1128 21.1411C94.0721 21.0548 94.0119 20.9873 93.9321 20.9385C93.8524 20.888 93.7555 20.8628 93.6416 20.8628C93.5098 20.8628 93.3991 20.8913 93.3096 20.9482C93.2201 21.0052 93.1525 21.0841 93.1069 21.1851C93.0614 21.2843 93.0386 21.3983 93.0386 21.5269H92.4502C92.4502 21.3201 92.4974 21.1313 92.5918 20.9604C92.6862 20.7879 92.8229 20.6512 93.002 20.5503C93.181 20.4478 93.3966 20.3965 93.6489 20.3965C93.8866 20.3965 94.0884 20.4364 94.2544 20.5161C94.4204 20.5959 94.5465 20.709 94.6328 20.8555C94.7207 21.002 94.7646 21.1753 94.7646 21.3755C94.7646 21.4862 94.7467 21.596 94.7109 21.7051C94.6751 21.8141 94.6239 21.9232 94.5571 22.0322C94.492 22.1396 94.4147 22.2479 94.3252 22.3569C94.2357 22.4644 94.1372 22.5734 94.0298 22.6841L93.2607 23.5312H94.9014ZM95.978 22.3472L95.5093 22.2324L95.7021 20.4453H97.6187V20.9434H96.1904L96.0928 21.8149C96.1481 21.7824 96.2246 21.7507 96.3223 21.7197C96.4199 21.6872 96.5314 21.6709 96.6567 21.6709C96.8244 21.6709 96.9741 21.6986 97.106 21.7539C97.2394 21.8076 97.3525 21.8866 97.4453 21.9907C97.5381 22.0933 97.6089 22.2186 97.6577 22.3667C97.7065 22.5132 97.731 22.6784 97.731 22.8623C97.731 23.0267 97.7065 23.1805 97.6577 23.3237C97.6105 23.467 97.5389 23.5931 97.4429 23.7021C97.3468 23.8112 97.2256 23.8966 97.0791 23.9585C96.9342 24.0187 96.7625 24.0488 96.564 24.0488C96.4159 24.0488 96.2734 24.0277 96.1367 23.9854C96.0016 23.9414 95.8804 23.8771 95.7729 23.7925C95.6655 23.7062 95.5793 23.6004 95.5142 23.4751C95.4491 23.3481 95.4116 23.2025 95.4019 23.0381H95.978C95.9927 23.1536 96.0244 23.2521 96.0732 23.3335C96.1237 23.4132 96.1904 23.4743 96.2734 23.5166C96.3564 23.5589 96.4525 23.5801 96.5615 23.5801C96.6608 23.5801 96.7463 23.563 96.8179 23.5288C96.8895 23.493 96.9489 23.4425 96.9961 23.3774C97.0449 23.3107 97.0807 23.2326 97.1035 23.1431C97.1279 23.0535 97.1401 22.9543 97.1401 22.8452C97.1401 22.741 97.1263 22.6458 97.0986 22.5596C97.0726 22.4733 97.0327 22.3984 96.979 22.335C96.9269 22.2715 96.861 22.2227 96.7813 22.1885C96.7015 22.1527 96.6095 22.1348 96.5054 22.1348C96.3654 22.1348 96.258 22.1551 96.1831 22.1958C96.1099 22.2365 96.0415 22.2869 95.978 22.3472Z" fill="#718491"/>
<path d="M27 36C27 34.8954 27.8954 34 29 34H143C144.105 34 145 34.8954 145 36V73C145 74.1046 144.105 75 143 75H29C27.8954 75 27 74.1046 27 73V36Z" fill="#718491"/>
<rect x="33.25" y="39" width="8" height="8" rx="2" fill="white"/>
<rect x="43.75" y="41" width="43" height="4" rx="2" fill="white"/>
<path d="M91.9673 43.7329V44.2017H89.4038L89.3843 43.8477L90.9175 41.4453H91.3887L90.8784 42.3193L89.9971 43.7329H91.9673ZM91.5229 41.4453V45H90.9346V41.4453H91.5229ZM94.6772 42.9248V43.5059C94.6772 43.7842 94.6496 44.0218 94.5942 44.2187C94.5405 44.4141 94.4624 44.5728 94.3599 44.6948C94.2573 44.8169 94.1344 44.9064 93.9912 44.9634C93.8496 45.0203 93.6909 45.0488 93.5151 45.0488C93.3752 45.0488 93.245 45.0309 93.1245 44.9951C93.0057 44.9593 92.8983 44.9032 92.8022 44.8267C92.7062 44.7502 92.624 44.6517 92.5557 44.5312C92.4889 44.4092 92.4368 44.2635 92.3994 44.0942C92.3636 43.925 92.3457 43.7288 92.3457 43.5059V42.9248C92.3457 42.6449 92.3734 42.4089 92.4287 42.2168C92.484 42.0231 92.563 41.866 92.6655 41.7456C92.7681 41.6235 92.8901 41.5348 93.0317 41.4795C93.175 41.4242 93.3345 41.3965 93.5103 41.3965C93.6519 41.3965 93.7821 41.4144 93.9009 41.4502C94.0213 41.4844 94.1287 41.5389 94.2231 41.6138C94.3192 41.6886 94.4006 41.7863 94.4673 41.9067C94.5356 42.0256 94.5877 42.1696 94.6235 42.3389C94.6593 42.5065 94.6772 42.7018 94.6772 42.9248ZM94.0889 43.5889V42.8369C94.0889 42.6953 94.0807 42.5708 94.0645 42.4634C94.0482 42.3543 94.0238 42.2624 93.9912 42.1875C93.9603 42.111 93.9212 42.0492 93.874 42.002C93.8268 41.9531 93.7731 41.9181 93.7129 41.897C93.6527 41.8742 93.5851 41.8628 93.5103 41.8628C93.4191 41.8628 93.3377 41.8807 93.2661 41.9165C93.1945 41.9507 93.1343 42.006 93.0854 42.0825C93.0366 42.159 92.9992 42.2599 92.9731 42.3853C92.9487 42.509 92.9365 42.6595 92.9365 42.8369V43.5889C92.9365 43.7321 92.9447 43.8582 92.9609 43.9673C92.9772 44.0763 93.0016 44.1699 93.0342 44.248C93.0667 44.3245 93.1058 44.388 93.1514 44.4385C93.1986 44.4873 93.2523 44.5231 93.3125 44.5459C93.3743 44.5687 93.4419 44.5801 93.5151 44.5801C93.6079 44.5801 93.6901 44.5622 93.7617 44.5264C93.8333 44.4906 93.8936 44.4336 93.9424 44.3555C93.9912 44.2757 94.0278 44.1724 94.0522 44.0454C94.0767 43.9185 94.0889 43.7663 94.0889 43.5889Z" fill="white"/>
<path d="M137.125 44.1875L135.25 42.3125L133.375 44.1875" stroke="white" stroke-width="0.625" stroke-miterlimit="10" stroke-linecap="round" stroke-linejoin="round"/>
<rect x="40.25" y="54" width="4" height="4" rx="2" fill="white"/>
<rect x="46.75" y="54" width="43" height="4" rx="2" fill="white"/>
<path d="M94.125 54.4331V58H93.5366V55.1313L92.665 55.4268V54.9409L94.0542 54.4331H94.125ZM97.6772 55.9248V56.5059C97.6772 56.7842 97.6496 57.0218 97.5942 57.2187C97.5405 57.4141 97.4624 57.5728 97.3599 57.6948C97.2573 57.8169 97.1344 57.9064 96.9912 57.9634C96.8496 58.0203 96.6909 58.0488 96.5151 58.0488C96.3752 58.0488 96.245 58.0309 96.1245 57.9951C96.0057 57.9593 95.8983 57.9032 95.8022 57.8267C95.7062 57.7502 95.624 57.6517 95.5557 57.5312C95.4889 57.4092 95.4368 57.2635 95.3994 57.0942C95.3636 56.925 95.3457 56.7288 95.3457 56.5059V55.9248C95.3457 55.6449 95.3734 55.4089 95.4287 55.2168C95.484 55.0231 95.563 54.866 95.6655 54.7456C95.7681 54.6235 95.8901 54.5348 96.0317 54.4795C96.175 54.4242 96.3345 54.3965 96.5103 54.3965C96.6519 54.3965 96.7821 54.4144 96.9009 54.4502C97.0213 54.4844 97.1287 54.5389 97.2231 54.6138C97.3192 54.6886 97.4006 54.7863 97.4673 54.9067C97.5356 55.0256 97.5877 55.1696 97.6235 55.3389C97.6593 55.5065 97.6772 55.7018 97.6772 55.9248ZM97.0889 56.5889V55.8369C97.0889 55.6953 97.0807 55.5708 97.0645 55.4634C97.0482 55.3543 97.0238 55.2624 96.9912 55.1875C96.9603 55.111 96.9212 55.0492 96.874 55.002C96.8268 54.9531 96.7731 54.9181 96.7129 54.897C96.6527 54.8742 96.5851 54.8628 96.5103 54.8628C96.4191 54.8628 96.3377 54.8807 96.2661 54.9165C96.1945 54.9507 96.1343 55.006 96.0854 55.0825C96.0366 55.159 95.9992 55.2599 95.9731 55.3853C95.9487 55.509 95.9365 55.6595 95.9365 55.8369V56.5889C95.9365 56.7321 95.9447 56.8582 95.9609 56.9673C95.9772 57.0763 96.0016 57.1699 96.0342 57.248C96.0667 57.3245 96.1058 57.388 96.1514 57.4385C96.1986 57.4873 96.2523 57.5231 96.3125 57.5459C96.3743 57.5687 96.4419 57.5801 96.5151 57.5801C96.6079 57.5801 96.6901 57.5622 96.7617 57.5264C96.8333 57.4906 96.8936 57.4336 96.9424 57.3555C96.9912 57.2757 97.0278 57.1724 97.0522 57.0454C97.0767 56.9185 97.0889 56.7663 97.0889 56.5889Z" fill="white"/>
<rect x="40.25" y="65" width="4" height="4" rx="2" fill="white"/>
<rect x="46.75" y="65" width="38" height="4" rx="2" fill="white"/>
<path d="M89.9014 68.5312V69H87.5186V68.5972L88.6758 67.335C88.8027 67.1917 88.9028 67.068 88.9761 66.9639C89.0493 66.8597 89.1006 66.7661 89.1299 66.6831C89.1608 66.5985 89.1763 66.5163 89.1763 66.4365C89.1763 66.3242 89.1551 66.2257 89.1128 66.1411C89.0721 66.0548 89.0119 65.9873 88.9321 65.9385C88.8524 65.888 88.7555 65.8628 88.6416 65.8628C88.5098 65.8628 88.3991 65.8913 88.3096 65.9482C88.2201 66.0052 88.1525 66.0841 88.1069 66.1851C88.0614 66.2843 88.0386 66.3983 88.0386 66.5269H87.4502C87.4502 66.3201 87.4974 66.1313 87.5918 65.9604C87.6862 65.7879 87.8229 65.6512 88.002 65.5503C88.181 65.4478 88.3966 65.3965 88.6489 65.3965C88.8866 65.3965 89.0884 65.4364 89.2544 65.5161C89.4204 65.5959 89.5465 65.709 89.6328 65.8555C89.7207 66.002 89.7646 66.1753 89.7646 66.3755C89.7646 66.4862 89.7467 66.596 89.7109 66.7051C89.6751 66.8141 89.6239 66.9232 89.5571 67.0322C89.492 67.1396 89.4147 67.2479 89.3252 67.3569C89.2357 67.4644 89.1372 67.5734 89.0298 67.6841L88.2607 68.5312H89.9014ZM92.6772 66.9248V67.5059C92.6772 67.7842 92.6496 68.0218 92.5942 68.2187C92.5405 68.4141 92.4624 68.5728 92.3599 68.6948C92.2573 68.8169 92.1344 68.9064 91.9912 68.9634C91.8496 69.0203 91.6909 69.0488 91.5151 69.0488C91.3752 69.0488 91.245 69.0309 91.1245 68.9951C91.0057 68.9593 90.8983 68.9032 90.8022 68.8267C90.7062 68.7502 90.624 68.6517 90.5557 68.5312C90.4889 68.4092 90.4368 68.2635 90.3994 68.0942C90.3636 67.925 90.3457 67.7288 90.3457 67.5059V66.9248C90.3457 66.6449 90.3734 66.4089 90.4287 66.2168C90.484 66.0231 90.563 65.866 90.6655 65.7456C90.7681 65.6235 90.8901 65.5348 91.0317 65.4795C91.175 65.4242 91.3345 65.3965 91.5103 65.3965C91.6519 65.3965 91.7821 65.4144 91.9009 65.4502C92.0213 65.4844 92.1287 65.5389 92.2231 65.6138C92.3192 65.6886 92.4006 65.7863 92.4673 65.9067C92.5356 66.0256 92.5877 66.1696 92.6235 66.3389C92.6593 66.5065 92.6772 66.7018 92.6772 66.9248ZM92.0889 67.5889V66.8369C92.0889 66.6953 92.0807 66.5708 92.0645 66.4634C92.0482 66.3543 92.0238 66.2624 91.9912 66.1875C91.9603 66.111 91.9212 66.0492 91.874 66.002C91.8268 65.9531 91.7731 65.9181 91.7129 65.897C91.6527 65.8742 91.5851 65.8628 91.5103 65.8628C91.4191 65.8628 91.3377 65.8807 91.2661 65.9165C91.1945 65.9507 91.1343 66.006 91.0854 66.0825C91.0366 66.159 90.9992 66.2599 90.9731 66.3853C90.9487 66.509 90.9365 66.6595 90.9365 66.8369V67.5889C90.9365 67.7321 90.9447 67.8582 90.9609 67.9673C90.9772 68.0763 91.0016 68.1699 91.0342 68.248C91.0667 68.3245 91.1058 68.388 91.1514 68.4385C91.1986 68.4873 91.2523 68.5231 91.3125 68.5459C91.3743 68.5687 91.4419 68.5801 91.5151 68.5801C91.6079 68.5801 91.6901 68.5622 91.7617 68.5264C91.8333 68.4906 91.8936 68.4336 91.9424 68.3555C91.9912 68.2757 92.0278 68.1724 92.0522 68.0454C92.0767 67.9185 92.0889 67.7663 92.0889 67.5889Z" fill="white"/>
<path d="M27 80C27 78.8954 27.8954 78 29 78H143C144.105 78 145 78.8954 145 80V94C145 95.1046 144.105 96 143 96H29C27.8954 96 27 95.1046 27 94V80Z" fill="#F0F0F0"/>
<rect x="33.25" y="83" width="8" height="8" rx="2" fill="#718491"/>
<rect x="43.75" y="85" width="49" height="4" rx="2" fill="#718491"/>
<path d="M97.9014 88.5312V89H95.5186V88.5972L96.6758 87.335C96.8027 87.1917 96.9028 87.068 96.9761 86.9639C97.0493 86.8597 97.1006 86.7661 97.1299 86.6831C97.1608 86.5985 97.1763 86.5163 97.1763 86.4365C97.1763 86.3242 97.1551 86.2257 97.1128 86.1411C97.0721 86.0548 97.0119 85.9873 96.9321 85.9385C96.8524 85.888 96.7555 85.8628 96.6416 85.8628C96.5098 85.8628 96.3991 85.8913 96.3096 85.9482C96.2201 86.0052 96.1525 86.0841 96.1069 86.1851C96.0614 86.2843 96.0386 86.3983 96.0386 86.5269H95.4502C95.4502 86.3201 95.4974 86.1313 95.5918 85.9604C95.6862 85.7879 95.8229 85.6512 96.002 85.5503C96.181 85.4478 96.3966 85.3965 96.6489 85.3965C96.8866 85.3965 97.0884 85.4364 97.2544 85.5161C97.4204 85.5959 97.5465 85.709 97.6328 85.8555C97.7207 86.002 97.7646 86.1753 97.7646 86.3755C97.7646 86.4862 97.7467 86.596 97.7109 86.7051C97.6751 86.8141 97.6239 86.9232 97.5571 87.0322C97.492 87.1396 97.4147 87.2479 97.3252 87.3569C97.2357 87.4644 97.1372 87.5734 97.0298 87.6841L96.2607 88.5312H97.9014ZM100.677 86.9248V87.5059C100.677 87.7842 100.65 88.0218 100.594 88.2187C100.541 88.4141 100.462 88.5728 100.36 88.6948C100.257 88.8169 100.134 88.9064 99.9912 88.9634C99.8496 89.0203 99.6909 89.0488 99.5151 89.0488C99.3752 89.0488 99.245 89.0309 99.1245 88.9951C99.0057 88.9593 98.8983 88.9032 98.8022 88.8267C98.7062 88.7502 98.624 88.6517 98.5557 88.5312C98.4889 88.4092 98.4368 88.2635 98.3994 88.0942C98.3636 87.925 98.3457 87.7288 98.3457 87.5059V86.9248C98.3457 86.6449 98.3734 86.4089 98.4287 86.2168C98.484 86.0231 98.563 85.866 98.6655 85.7456C98.7681 85.6235 98.8901 85.5348 99.0317 85.4795C99.175 85.4242 99.3345 85.3965 99.5103 85.3965C99.6519 85.3965 99.7821 85.4144 99.9009 85.4502C100.021 85.4844 100.129 85.5389 100.223 85.6138C100.319 85.6886 100.401 85.7863 100.467 85.9067C100.536 86.0256 100.588 86.1696 100.624 86.3389C100.659 86.5065 100.677 86.7018 100.677 86.9248ZM100.089 87.5889V86.8369C100.089 86.6953 100.081 86.5708 100.064 86.4634C100.048 86.3543 100.024 86.2624 99.9912 86.1875C99.9603 86.111 99.9212 86.0492 99.874 86.002C99.8268 85.9531 99.7731 85.9181 99.7129 85.897C99.6527 85.8742 99.5851 85.8628 99.5103 85.8628C99.4191 85.8628 99.3377 85.8807 99.2661 85.9165C99.1945 85.9507 99.1343 86.006 99.0854 86.0825C99.0366 86.159 98.9992 86.2599 98.9731 86.3853C98.9487 86.509 98.9365 86.6595 98.9365 86.8369V87.5889C98.9365 87.7321 98.9447 87.8582 98.9609 87.9673C98.9772 88.0763 99.0016 88.1699 99.0342 88.248C99.0667 88.3245 99.1058 88.388 99.1514 88.4385C99.1986 88.4873 99.2523 88.5231 99.3125 88.5459C99.3743 88.5687 99.4419 88.5801 99.5151 88.5801C99.6079 88.5801 99.6901 88.5622 99.7617 88.5264C99.8333 88.4906 99.8936 88.4336 99.9424 88.3555C99.9912 88.2757 100.028 88.1724 100.052 88.0454C100.077 87.9185 100.089 87.7663 100.089 87.5889Z" fill="#718491"/>
<rect x="27" y="99" width="118" height="18" rx="2" fill="#F0F0F0"/>
<rect x="33.25" y="104" width="8" height="8" rx="2" fill="#718491"/>
<rect x="43.75" y="106" width="42" height="4" rx="2" fill="#718491"/>
<path d="M90.9014 109.531V110H88.5186V109.597L89.6758 108.335C89.8027 108.192 89.9028 108.068 89.9761 107.964C90.0493 107.86 90.1006 107.766 90.1299 107.683C90.1608 107.598 90.1763 107.516 90.1763 107.437C90.1763 107.324 90.1551 107.226 90.1128 107.141C90.0721 107.055 90.0119 106.987 89.9321 106.938C89.8524 106.888 89.7555 106.863 89.6416 106.863C89.5098 106.863 89.3991 106.891 89.3096 106.948C89.2201 107.005 89.1525 107.084 89.1069 107.185C89.0614 107.284 89.0386 107.398 89.0386 107.527H88.4502C88.4502 107.32 88.4974 107.131 88.5918 106.96C88.6862 106.788 88.8229 106.651 89.002 106.55C89.181 106.448 89.3966 106.396 89.6489 106.396C89.8866 106.396 90.0884 106.436 90.2544 106.516C90.4204 106.596 90.5465 106.709 90.6328 106.855C90.7207 107.002 90.7646 107.175 90.7646 107.375C90.7646 107.486 90.7467 107.596 90.7109 107.705C90.6751 107.814 90.6239 107.923 90.5571 108.032C90.492 108.14 90.4147 108.248 90.3252 108.357C90.2357 108.464 90.1372 108.573 90.0298 108.684L89.2607 109.531H90.9014ZM93.6772 107.925V108.506C93.6772 108.784 93.6496 109.022 93.5942 109.219C93.5405 109.414 93.4624 109.573 93.3599 109.695C93.2573 109.817 93.1344 109.906 92.9912 109.963C92.8496 110.02 92.6909 110.049 92.5151 110.049C92.3752 110.049 92.245 110.031 92.1245 109.995C92.0057 109.959 91.8983 109.903 91.8022 109.827C91.7062 109.75 91.624 109.652 91.5557 109.531C91.4889 109.409 91.4368 109.264 91.3994 109.094C91.3636 108.925 91.3457 108.729 91.3457 108.506V107.925C91.3457 107.645 91.3734 107.409 91.4287 107.217C91.484 107.023 91.563 106.866 91.6655 106.746C91.7681 106.624 91.8901 106.535 92.0317 106.479C92.175 106.424 92.3345 106.396 92.5103 106.396C92.6519 106.396 92.7821 106.414 92.9009 106.45C93.0213 106.484 93.1287 106.539 93.2231 106.614C93.3192 106.689 93.4006 106.786 93.4673 106.907C93.5356 107.026 93.5877 107.17 93.6235 107.339C93.6593 107.507 93.6772 107.702 93.6772 107.925ZM93.0889 108.589V107.837C93.0889 107.695 93.0807 107.571 93.0645 107.463C93.0482 107.354 93.0238 107.262 92.9912 107.187C92.9603 107.111 92.9212 107.049 92.874 107.002C92.8268 106.953 92.7731 106.918 92.7129 106.897C92.6527 106.874 92.5851 106.863 92.5103 106.863C92.4191 106.863 92.3377 106.881 92.2661 106.917C92.1945 106.951 92.1343 107.006 92.0854 107.083C92.0366 107.159 91.9992 107.26 91.9731 107.385C91.9487 107.509 91.9365 107.66 91.9365 107.837V108.589C91.9365 108.732 91.9447 108.858 91.9609 108.967C91.9772 109.076 92.0016 109.17 92.0342 109.248C92.0667 109.325 92.1058 109.388 92.1514 109.438C92.1986 109.487 92.2523 109.523 92.3125 109.546C92.3743 109.569 92.4419 109.58 92.5151 109.58C92.6079 109.58 92.6901 109.562 92.7617 109.526C92.8333 109.491 92.8936 109.434 92.9424 109.355C92.9912 109.276 93.0278 109.172 93.0522 109.045C93.0767 108.918 93.0889 108.766 93.0889 108.589Z" fill="#718491"/>
<path d="M133.375 107.312L135.25 109.188L137.125 107.312" stroke="#718491" stroke-width="0.625" stroke-miterlimit="10" stroke-linecap="round" stroke-linejoin="round"/>
</svg>
