<svg width="172" height="130" viewBox="0 0 172 130" fill="none" xmlns="http://www.w3.org/2000/svg">
<rect x="0.75" y="0.75" width="170.5" height="128.5" rx="3.25" fill="white"/>
<rect x="0.75" y="0.75" width="170.5" height="128.5" rx="3.25" stroke="#1A74E4" stroke-width="1.5"/>
<rect x="26.5" y="14.5" width="119" height="100.812" rx="2.5" fill="#F0F0F0"/>
<rect x="26.5" y="14.5" width="119" height="100.812" rx="2.5" stroke="#718491"/>
<mask id="path-3-inside-1_7454_277414" fill="white">
<path d="M27 15H145V33H27V15Z"/>
</mask>
<path d="M145 33V32.6875H27V33V33.3125H145V33Z" fill="#CCCCCC" mask="url(#path-3-inside-1_7454_277414)"/>
<rect x="33.25" y="22" width="46" height="4" rx="2" fill="#718491"/>
<path d="M84.4014 25.5312V26H82.0186V25.5972L83.1758 24.335C83.3027 24.1917 83.4028 24.068 83.4761 23.9639C83.5493 23.8597 83.6006 23.7661 83.6299 23.6831C83.6608 23.5985 83.6763 23.5163 83.6763 23.4365C83.6763 23.3242 83.6551 23.2257 83.6128 23.1411C83.5721 23.0548 83.5119 22.9873 83.4321 22.9385C83.3524 22.888 83.2555 22.8628 83.1416 22.8628C83.0098 22.8628 82.8991 22.8913 82.8096 22.9482C82.7201 23.0052 82.6525 23.0841 82.6069 23.1851C82.5614 23.2843 82.5386 23.3983 82.5386 23.5269H81.9502C81.9502 23.3201 81.9974 23.1313 82.0918 22.9604C82.1862 22.7879 82.3229 22.6512 82.502 22.5503C82.681 22.4478 82.8966 22.3965 83.1489 22.3965C83.3866 22.3965 83.5884 22.4364 83.7544 22.5161C83.9204 22.5959 84.0465 22.709 84.1328 22.8555C84.2207 23.002 84.2646 23.1753 84.2646 23.3755C84.2646 23.4862 84.2467 23.596 84.2109 23.7051C84.1751 23.8141 84.1239 23.9232 84.0571 24.0322C83.992 24.1396 83.9147 24.2479 83.8252 24.3569C83.7357 24.4644 83.6372 24.5734 83.5298 24.6841L82.7607 25.5312H84.4014ZM85.478 24.3472L85.0093 24.2324L85.2021 22.4453H87.1187V22.9434H85.6904L85.5928 23.8149C85.6481 23.7824 85.7246 23.7507 85.8223 23.7197C85.9199 23.6872 86.0314 23.6709 86.1567 23.6709C86.3244 23.6709 86.4741 23.6986 86.606 23.7539C86.7394 23.8076 86.8525 23.8866 86.9453 23.9907C87.0381 24.0933 87.1089 24.2186 87.1577 24.3667C87.2065 24.5132 87.231 24.6784 87.231 24.8623C87.231 25.0267 87.2065 25.1805 87.1577 25.3237C87.1105 25.467 87.0389 25.5931 86.9429 25.7021C86.8468 25.8112 86.7256 25.8966 86.5791 25.9585C86.4342 26.0187 86.2625 26.0488 86.064 26.0488C85.9159 26.0488 85.7734 26.0277 85.6367 25.9854C85.5016 25.9414 85.3804 25.8771 85.2729 25.7925C85.1655 25.7062 85.0793 25.6004 85.0142 25.4751C84.9491 25.3481 84.9116 25.2025 84.9019 25.0381H85.478C85.4927 25.1536 85.5244 25.2521 85.5732 25.3335C85.6237 25.4132 85.6904 25.4743 85.7734 25.5166C85.8564 25.5589 85.9525 25.5801 86.0615 25.5801C86.1608 25.5801 86.2463 25.563 86.3179 25.5288C86.3895 25.493 86.4489 25.4425 86.4961 25.3774C86.5449 25.3107 86.5807 25.2326 86.6035 25.1431C86.6279 25.0535 86.6401 24.9543 86.6401 24.8452C86.6401 24.741 86.6263 24.6458 86.5986 24.5596C86.5726 24.4733 86.5327 24.3984 86.479 24.335C86.4269 24.2715 86.361 24.2227 86.2813 24.1885C86.2015 24.1527 86.1095 24.1348 86.0054 24.1348C85.8654 24.1348 85.758 24.1551 85.6831 24.1958C85.6099 24.2365 85.5415 24.2869 85.478 24.3472Z" fill="#718491"/>
<mask id="path-7-inside-2_7454_277414" fill="white">
<path d="M27 33H145V77.3125H27V33Z"/>
</mask>
<path d="M27 33H145V77.3125H27V33Z" fill="#718491"/>
<path d="M145 77.3125V77H27V77.3125V77.625H145V77.3125Z" fill="#CCCCCC" mask="url(#path-7-inside-2_7454_277414)"/>
<rect x="33.25" y="40.75" width="43" height="4" rx="2" fill="white"/>
<path d="M81.4673 43.4829V43.9517H78.9038L78.8843 43.5977L80.4175 41.1953H80.8887L80.3784 42.0693L79.4971 43.4829H81.4673ZM81.0229 41.1953V44.75H80.4346V41.1953H81.0229ZM84.1772 42.6748V43.2559C84.1772 43.5342 84.1496 43.7718 84.0942 43.9687C84.0405 44.1641 83.9624 44.3228 83.8599 44.4448C83.7573 44.5669 83.6344 44.6564 83.4912 44.7134C83.3496 44.7703 83.1909 44.7988 83.0151 44.7988C82.8752 44.7988 82.745 44.7809 82.6245 44.7451C82.5057 44.7093 82.3983 44.6532 82.3022 44.5767C82.2062 44.5002 82.124 44.4017 82.0557 44.2812C81.9889 44.1592 81.9368 44.0135 81.8994 43.8442C81.8636 43.675 81.8457 43.4788 81.8457 43.2559V42.6748C81.8457 42.3949 81.8734 42.1589 81.9287 41.9668C81.984 41.7731 82.063 41.616 82.1655 41.4956C82.2681 41.3735 82.3901 41.2848 82.5317 41.2295C82.675 41.1742 82.8345 41.1465 83.0103 41.1465C83.1519 41.1465 83.2821 41.1644 83.4009 41.2002C83.5213 41.2344 83.6287 41.2889 83.7231 41.3638C83.8192 41.4386 83.9006 41.5363 83.9673 41.6567C84.0356 41.7756 84.0877 41.9196 84.1235 42.0889C84.1593 42.2565 84.1772 42.4518 84.1772 42.6748ZM83.5889 43.3389V42.5869C83.5889 42.4453 83.5807 42.3208 83.5645 42.2134C83.5482 42.1043 83.5238 42.0124 83.4912 41.9375C83.4603 41.861 83.4212 41.7992 83.374 41.752C83.3268 41.7031 83.2731 41.6681 83.2129 41.647C83.1527 41.6242 83.0851 41.6128 83.0103 41.6128C82.9191 41.6128 82.8377 41.6307 82.7661 41.6665C82.6945 41.7007 82.6343 41.756 82.5854 41.8325C82.5366 41.909 82.4992 42.0099 82.4731 42.1353C82.4487 42.259 82.4365 42.4095 82.4365 42.5869V43.3389C82.4365 43.4821 82.4447 43.6082 82.4609 43.7173C82.4772 43.8263 82.5016 43.9199 82.5342 43.998C82.5667 44.0745 82.6058 44.138 82.6514 44.1885C82.6986 44.2373 82.7523 44.2731 82.8125 44.2959C82.8743 44.3187 82.9419 44.3301 83.0151 44.3301C83.1079 44.3301 83.1901 44.3122 83.2617 44.2764C83.3333 44.2406 83.3936 44.1836 83.4424 44.1055C83.4912 44.0257 83.5278 43.9224 83.5522 43.7954C83.5767 43.6685 83.5889 43.5163 83.5889 43.3389Z" fill="white"/>
<path d="M137.125 43.9375L135.25 42.0625L133.375 43.9375" stroke="white" stroke-width="0.625" stroke-miterlimit="10" stroke-linecap="round" stroke-linejoin="round"/>
<rect x="40.25" y="53.5" width="43" height="4" rx="2" fill="white"/>
<path d="M87.625 53.9331V57.5H87.0366V54.6313L86.165 54.9268V54.4409L87.5542 53.9331H87.625ZM91.1772 55.4248V56.0059C91.1772 56.2842 91.1496 56.5218 91.0942 56.7187C91.0405 56.9141 90.9624 57.0728 90.8599 57.1948C90.7573 57.3169 90.6344 57.4064 90.4912 57.4634C90.3496 57.5203 90.1909 57.5488 90.0151 57.5488C89.8752 57.5488 89.745 57.5309 89.6245 57.4951C89.5057 57.4593 89.3983 57.4032 89.3022 57.3267C89.2062 57.2502 89.124 57.1517 89.0557 57.0312C88.9889 56.9092 88.9368 56.7635 88.8994 56.5942C88.8636 56.425 88.8457 56.2288 88.8457 56.0059V55.4248C88.8457 55.1449 88.8734 54.9089 88.9287 54.7168C88.984 54.5231 89.063 54.366 89.1655 54.2456C89.2681 54.1235 89.3901 54.0348 89.5317 53.9795C89.675 53.9242 89.8345 53.8965 90.0103 53.8965C90.1519 53.8965 90.2821 53.9144 90.4009 53.9502C90.5213 53.9844 90.6287 54.0389 90.7231 54.1138C90.8192 54.1886 90.9006 54.2863 90.9673 54.4067C91.0356 54.5256 91.0877 54.6696 91.1235 54.8389C91.1593 55.0065 91.1772 55.2018 91.1772 55.4248ZM90.5889 56.0889V55.3369C90.5889 55.1953 90.5807 55.0708 90.5645 54.9634C90.5482 54.8543 90.5238 54.7624 90.4912 54.6875C90.4603 54.611 90.4212 54.5492 90.374 54.502C90.3268 54.4531 90.2731 54.4181 90.2129 54.397C90.1527 54.3742 90.0851 54.3628 90.0103 54.3628C89.9191 54.3628 89.8377 54.3807 89.7661 54.4165C89.6945 54.4507 89.6343 54.506 89.5854 54.5825C89.5366 54.659 89.4992 54.7599 89.4731 54.8853C89.4487 55.009 89.4365 55.1595 89.4365 55.3369V56.0889C89.4365 56.2321 89.4447 56.3582 89.4609 56.4673C89.4772 56.5763 89.5016 56.6699 89.5342 56.748C89.5667 56.8245 89.6058 56.888 89.6514 56.9385C89.6986 56.9873 89.7523 57.0231 89.8125 57.0459C89.8743 57.0687 89.9419 57.0801 90.0151 57.0801C90.1079 57.0801 90.1901 57.0622 90.2617 57.0264C90.3333 56.9906 90.3936 56.9336 90.4424 56.8555C90.4912 56.7757 90.5278 56.6724 90.5522 56.5454C90.5767 56.4185 90.5889 56.2663 90.5889 56.0889Z" fill="white"/>
<rect opacity="0.1" x="40.25" y="61.625" width="98.5" height="0.3125" fill="white"/>
<rect x="40.25" y="66.0625" width="38" height="4" rx="2" fill="white"/>
<path d="M83.4014 69.5937V70.0625H81.0186V69.6597L82.1758 68.3975C82.3027 68.2542 82.4028 68.1305 82.4761 68.0264C82.5493 67.9222 82.6006 67.8286 82.6299 67.7456C82.6608 67.661 82.6763 67.5788 82.6763 67.499C82.6763 67.3867 82.6551 67.2882 82.6128 67.2036C82.5721 67.1173 82.5119 67.0498 82.4321 67.001C82.3524 66.9505 82.2555 66.9253 82.1416 66.9253C82.0098 66.9253 81.8991 66.9538 81.8096 67.0107C81.7201 67.0677 81.6525 67.1466 81.6069 67.2476C81.5614 67.3468 81.5386 67.4608 81.5386 67.5894H80.9502C80.9502 67.3826 80.9974 67.1938 81.0918 67.0229C81.1862 66.8504 81.3229 66.7137 81.502 66.6128C81.681 66.5103 81.8966 66.459 82.1489 66.459C82.3866 66.459 82.5884 66.4989 82.7544 66.5786C82.9204 66.6584 83.0465 66.7715 83.1328 66.918C83.2207 67.0645 83.2646 67.2378 83.2646 67.438C83.2646 67.5487 83.2467 67.6585 83.2109 67.7676C83.1751 67.8766 83.1239 67.9857 83.0571 68.0947C82.992 68.2021 82.9147 68.3104 82.8252 68.4194C82.7357 68.5269 82.6372 68.6359 82.5298 68.7466L81.7607 69.5937H83.4014ZM86.1772 67.9873V68.5684C86.1772 68.8467 86.1496 69.0843 86.0942 69.2812C86.0405 69.4766 85.9624 69.6353 85.8599 69.7573C85.7573 69.8794 85.6344 69.9689 85.4912 70.0259C85.3496 70.0828 85.1909 70.1113 85.0151 70.1113C84.8752 70.1113 84.745 70.0934 84.6245 70.0576C84.5057 70.0218 84.3983 69.9657 84.3022 69.8892C84.2062 69.8127 84.124 69.7142 84.0557 69.5937C83.9889 69.4717 83.9368 69.326 83.8994 69.1567C83.8636 68.9875 83.8457 68.7913 83.8457 68.5684V67.9873C83.8457 67.7074 83.8734 67.4714 83.9287 67.2793C83.984 67.0856 84.063 66.9285 84.1655 66.8081C84.2681 66.686 84.3901 66.5973 84.5317 66.542C84.675 66.4867 84.8345 66.459 85.0103 66.459C85.1519 66.459 85.2821 66.4769 85.4009 66.5127C85.5213 66.5469 85.6287 66.6014 85.7231 66.6763C85.8192 66.7511 85.9006 66.8488 85.9673 66.9692C86.0356 67.0881 86.0877 67.2321 86.1235 67.4014C86.1593 67.569 86.1772 67.7643 86.1772 67.9873ZM85.5889 68.6514V67.8994C85.5889 67.7578 85.5807 67.6333 85.5645 67.5259C85.5482 67.4168 85.5238 67.3249 85.4912 67.25C85.4603 67.1735 85.4212 67.1117 85.374 67.0645C85.3268 67.0156 85.2731 66.9806 85.2129 66.9595C85.1527 66.9367 85.0851 66.9253 85.0103 66.9253C84.9191 66.9253 84.8377 66.9432 84.7661 66.979C84.6945 67.0132 84.6343 67.0685 84.5854 67.145C84.5366 67.2215 84.4992 67.3224 84.4731 67.4478C84.4487 67.5715 84.4365 67.722 84.4365 67.8994V68.6514C84.4365 68.7946 84.4447 68.9207 84.4609 69.0298C84.4772 69.1388 84.5016 69.2324 84.5342 69.3105C84.5667 69.387 84.6058 69.4505 84.6514 69.501C84.6986 69.5498 84.7523 69.5856 84.8125 69.6084C84.8743 69.6312 84.9419 69.6426 85.0151 69.6426C85.1079 69.6426 85.1901 69.6247 85.2617 69.5889C85.3333 69.5531 85.3936 69.4961 85.4424 69.418C85.4912 69.3382 85.5278 69.2349 85.5522 69.1079C85.5767 68.981 85.5889 68.8288 85.5889 68.6514Z" fill="white"/>
<mask id="path-17-inside-3_7454_277414" fill="white">
<path d="M27 77.3125H145V95.3125H27V77.3125Z"/>
</mask>
<path d="M145 95.3125V95H27V95.3125V95.625H145V95.3125Z" fill="#CCCCCC" mask="url(#path-17-inside-3_7454_277414)"/>
<rect x="33.25" y="84.3125" width="49" height="4" rx="2" fill="#718491"/>
<path d="M87.4014 87.8437V88.3125H85.0186V87.9097L86.1758 86.6475C86.3027 86.5042 86.4028 86.3805 86.4761 86.2764C86.5493 86.1722 86.6006 86.0786 86.6299 85.9956C86.6608 85.911 86.6763 85.8288 86.6763 85.749C86.6763 85.6367 86.6551 85.5382 86.6128 85.4536C86.5721 85.3673 86.5119 85.2998 86.4321 85.251C86.3524 85.2005 86.2555 85.1753 86.1416 85.1753C86.0098 85.1753 85.8991 85.2038 85.8096 85.2607C85.7201 85.3177 85.6525 85.3966 85.6069 85.4976C85.5614 85.5968 85.5386 85.7108 85.5386 85.8394H84.9502C84.9502 85.6326 84.9974 85.4438 85.0918 85.2729C85.1862 85.1004 85.3229 84.9637 85.502 84.8628C85.681 84.7603 85.8966 84.709 86.1489 84.709C86.3866 84.709 86.5884 84.7489 86.7544 84.8286C86.9204 84.9084 87.0465 85.0215 87.1328 85.168C87.2207 85.3145 87.2646 85.4878 87.2646 85.688C87.2646 85.7987 87.2467 85.9085 87.2109 86.0176C87.1751 86.1266 87.1239 86.2357 87.0571 86.3447C86.992 86.4521 86.9147 86.5604 86.8252 86.6694C86.7357 86.7769 86.6372 86.8859 86.5298 86.9966L85.7607 87.8437H87.4014ZM90.1772 86.2373V86.8184C90.1772 87.0967 90.1496 87.3343 90.0942 87.5312C90.0405 87.7266 89.9624 87.8853 89.8599 88.0073C89.7573 88.1294 89.6344 88.2189 89.4912 88.2759C89.3496 88.3328 89.1909 88.3613 89.0151 88.3613C88.8752 88.3613 88.745 88.3434 88.6245 88.3076C88.5057 88.2718 88.3983 88.2157 88.3022 88.1392C88.2062 88.0627 88.124 87.9642 88.0557 87.8437C87.9889 87.7217 87.9368 87.576 87.8994 87.4067C87.8636 87.2375 87.8457 87.0413 87.8457 86.8184V86.2373C87.8457 85.9574 87.8734 85.7214 87.9287 85.5293C87.984 85.3356 88.063 85.1785 88.1655 85.0581C88.2681 84.936 88.3901 84.8473 88.5317 84.792C88.675 84.7367 88.8345 84.709 89.0103 84.709C89.1519 84.709 89.2821 84.7269 89.4009 84.7627C89.5213 84.7969 89.6287 84.8514 89.7231 84.9263C89.8192 85.0011 89.9006 85.0988 89.9673 85.2192C90.0356 85.3381 90.0877 85.4821 90.1235 85.6514C90.1593 85.819 90.1772 86.0143 90.1772 86.2373ZM89.5889 86.9014V86.1494C89.5889 86.0078 89.5807 85.8833 89.5645 85.7759C89.5482 85.6668 89.5238 85.5749 89.4912 85.5C89.4603 85.4235 89.4212 85.3617 89.374 85.3145C89.3268 85.2656 89.2731 85.2306 89.2129 85.2095C89.1527 85.1867 89.0851 85.1753 89.0103 85.1753C88.9191 85.1753 88.8377 85.1932 88.7661 85.229C88.6945 85.2632 88.6343 85.3185 88.5854 85.395C88.5366 85.4715 88.4992 85.5724 88.4731 85.6978C88.4487 85.8215 88.4365 85.972 88.4365 86.1494V86.9014C88.4365 87.0446 88.4447 87.1707 88.4609 87.2798C88.4772 87.3888 88.5016 87.4824 88.5342 87.5605C88.5667 87.637 88.6058 87.7005 88.6514 87.751C88.6986 87.7998 88.7523 87.8356 88.8125 87.8584C88.8743 87.8812 88.9419 87.8926 89.0151 87.8926C89.1079 87.8926 89.1901 87.8747 89.2617 87.8389C89.3333 87.8031 89.3936 87.7461 89.4424 87.668C89.4912 87.5882 89.5278 87.4849 89.5522 87.3579C89.5767 87.231 89.5889 87.0788 89.5889 86.9014Z" fill="#718491"/>
<rect x="33.25" y="103.062" width="42" height="4" rx="2" fill="#718491"/>
<path d="M80.4014 106.594V107.062H78.0186V106.66L79.1758 105.397C79.3027 105.254 79.4028 105.131 79.4761 105.026C79.5493 104.922 79.6006 104.829 79.6299 104.746C79.6608 104.661 79.6763 104.579 79.6763 104.499C79.6763 104.387 79.6551 104.288 79.6128 104.204C79.5721 104.117 79.5119 104.05 79.4321 104.001C79.3524 103.951 79.2555 103.925 79.1416 103.925C79.0098 103.925 78.8991 103.954 78.8096 104.011C78.7201 104.068 78.6525 104.147 78.6069 104.248C78.5614 104.347 78.5386 104.461 78.5386 104.589H77.9502C77.9502 104.383 77.9974 104.194 78.0918 104.023C78.1862 103.85 78.3229 103.714 78.502 103.613C78.681 103.51 78.8966 103.459 79.1489 103.459C79.3866 103.459 79.5884 103.499 79.7544 103.579C79.9204 103.658 80.0465 103.771 80.1328 103.918C80.2207 104.064 80.2646 104.238 80.2646 104.438C80.2646 104.549 80.2467 104.659 80.2109 104.768C80.1751 104.877 80.1239 104.986 80.0571 105.095C79.992 105.202 79.9147 105.31 79.8252 105.419C79.7357 105.527 79.6372 105.636 79.5298 105.747L78.7607 106.594H80.4014ZM83.1772 104.987V105.568C83.1772 105.847 83.1496 106.084 83.0942 106.281C83.0405 106.477 82.9624 106.635 82.8599 106.757C82.7573 106.879 82.6344 106.969 82.4912 107.026C82.3496 107.083 82.1909 107.111 82.0151 107.111C81.8752 107.111 81.745 107.093 81.6245 107.058C81.5057 107.022 81.3983 106.966 81.3022 106.889C81.2062 106.813 81.124 106.714 81.0557 106.594C80.9889 106.472 80.9368 106.326 80.8994 106.157C80.8636 105.987 80.8457 105.791 80.8457 105.568V104.987C80.8457 104.707 80.8734 104.471 80.9287 104.279C80.984 104.086 81.063 103.929 81.1655 103.808C81.2681 103.686 81.3901 103.597 81.5317 103.542C81.675 103.487 81.8345 103.459 82.0103 103.459C82.1519 103.459 82.2821 103.477 82.4009 103.513C82.5213 103.547 82.6287 103.601 82.7231 103.676C82.8192 103.751 82.9006 103.849 82.9673 103.969C83.0356 104.088 83.0877 104.232 83.1235 104.401C83.1593 104.569 83.1772 104.764 83.1772 104.987ZM82.5889 105.651V104.899C82.5889 104.758 82.5807 104.633 82.5645 104.526C82.5482 104.417 82.5238 104.325 82.4912 104.25C82.4603 104.174 82.4212 104.112 82.374 104.064C82.3268 104.016 82.2731 103.981 82.2129 103.959C82.1527 103.937 82.0851 103.925 82.0103 103.925C81.9191 103.925 81.8377 103.943 81.7661 103.979C81.6945 104.013 81.6343 104.069 81.5854 104.145C81.5366 104.222 81.4992 104.322 81.4731 104.448C81.4487 104.571 81.4365 104.722 81.4365 104.899V105.651C81.4365 105.795 81.4447 105.921 81.4609 106.03C81.4772 106.139 81.5016 106.232 81.5342 106.311C81.5667 106.387 81.6058 106.451 81.6514 106.501C81.6986 106.55 81.7523 106.586 81.8125 106.608C81.8743 106.631 81.9419 106.643 82.0151 106.643C82.1079 106.643 82.1901 106.625 82.2617 106.589C82.3333 106.553 82.3936 106.496 82.4424 106.418C82.4912 106.338 82.5278 106.235 82.5522 106.108C82.5767 105.981 82.5889 105.829 82.5889 105.651Z" fill="#718491"/>
<path d="M133.375 104.375L135.25 106.25L137.125 104.375" stroke="#718491" stroke-width="0.625" stroke-miterlimit="10" stroke-linecap="round" stroke-linejoin="round"/>
</svg>
